# WaveFront *.obj file (generated by Autodesk ATF)

mtllib Shoulder.mtl

g Body1

v 0.000000 -25.000000 20.000000
v 0.000000 -25.000000 -20.000000
v -20.000000 -25.000000 -20.000000
v -20.000000 -25.000000 20.000000
v 20.000000 -305.000000 -20.000000
v -20.000000 -305.000000 -20.000000
v 20.000000 -25.000000 -20.000000
v -20.000000 -305.000000 20.000000
v 20.000000 -25.000000 20.000000
v 20.000000 -305.000000 20.000000
v -3.196929 -24.794750 -20.000000
v -6.341365 -24.182372 -20.000000
v -9.381675 -23.172919 -20.000000
v -12.267939 -21.782968 -20.000000
v -14.952763 -20.035341 -20.000000
v -17.392064 -17.958734 -20.000000
v -19.545787 -15.587245 -20.000000
v -21.378569 -12.959814 -20.000000
v -22.860316 -10.119584 -20.000000
v -23.966696 -7.113190 -20.000000
v -24.679545 -3.989997 -20.000000
v -24.987155 -0.801289 -20.000000
v -24.884478 2.400576 -20.000000
v -24.373198 5.563023 -20.000000
v -23.461711 8.634126 -20.000000
v -22.164983 11.563457 -20.000000
v -20.504306 14.302917 -20.000000
v -18.506950 16.807522 -20.000000
v -16.205710 19.036149 -20.000000
v -13.638373 20.952203 -20.000000
v -10.847093 22.524222 -20.000000
v -7.877705 23.726394 -20.000000
v -4.778966 24.538979 -20.000000
v -1.601755 24.948635 -20.000000
v 1.601755 24.948635 -20.000000
v 4.778966 24.538979 -20.000000
v 7.877705 23.726394 -20.000000
v 10.847093 22.524222 -20.000000
v 13.638373 20.952203 -20.000000
v 16.205710 19.036149 -20.000000
v 18.506950 16.807522 -20.000000
v 20.504306 14.302917 -20.000000
v 22.164983 11.563457 -20.000000
v 23.461711 8.634126 -20.000000
v 24.373198 5.563023 -20.000000
v 24.884478 2.400576 -20.000000
v 24.987155 -0.801289 -20.000000
v 24.679545 -3.989997 -20.000000
v 23.966696 -7.113190 -20.000000
v 22.860316 -10.119584 -20.000000
v 21.378569 -12.959814 -20.000000
v 19.545787 -15.587245 -20.000000
v 17.392064 -17.958734 -20.000000
v 14.952763 -20.035341 -20.000000
v 12.267939 -21.782968 -20.000000
v 9.381675 -23.172919 -20.000000
v 6.341365 -24.182372 -20.000000
v 3.196929 -24.794750 -20.000000
v -3.196929 -24.794750 20.000000
v -6.341365 -24.182372 20.000000
v -9.381675 -23.172919 20.000000
v -12.267939 -21.782968 20.000000
v -14.952763 -20.035341 20.000000
v -17.392064 -17.958734 20.000000
v -19.545787 -15.587245 20.000000
v -21.378569 -12.959814 20.000000
v -22.860316 -10.119584 20.000000
v -23.966696 -7.113190 20.000000
v -24.679545 -3.989997 20.000000
v -24.987155 -0.801289 20.000000
v -24.884478 2.400576 20.000000
v -24.373198 5.563023 20.000000
v -23.461711 8.634126 20.000000
v -22.164983 11.563457 20.000000
v -20.504306 14.302917 20.000000
v -18.506950 16.807522 20.000000
v -16.205710 19.036149 20.000000
v -13.638373 20.952203 20.000000
v -10.847093 22.524222 20.000000
v -7.877705 23.726394 20.000000
v -4.778966 24.538979 20.000000
v -1.601755 24.948635 20.000000
v 1.601755 24.948635 20.000000
v 4.778966 24.538979 20.000000
v 7.877705 23.726394 20.000000
v 10.847093 22.524222 20.000000
v 13.638373 20.952203 20.000000
v 16.205710 19.036149 20.000000
v 18.506950 16.807522 20.000000
v 20.504306 14.302917 20.000000
v 22.164983 11.563457 20.000000
v 23.461711 8.634126 20.000000
v 24.373198 5.563023 20.000000
v 24.884478 2.400576 20.000000
v 24.987155 -0.801289 20.000000
v 24.679545 -3.989997 20.000000
v 23.966696 -7.113190 20.000000
v 22.860316 -10.119584 20.000000
v 21.378569 -12.959814 20.000000
v 19.545787 -15.587245 20.000000
v 17.392064 -17.958734 20.000000
v 14.952763 -20.035341 20.000000
v 12.267939 -21.782968 20.000000
v 9.381675 -23.172919 20.000000
v 6.341365 -24.182372 20.000000
v 3.196929 -24.794750 20.000000
vt 2.000000 -2.000000 0.000000
vt 4.000000 -2.000000 0.000000
vt 2.000000 2.000000 0.000000
vt 4.000000 2.000000 0.000000
vt -2.000000 14.000000 0.000000
vt -2.000000 -14.000000 0.000000
vt 0.000000 14.000000 0.000000
vt 2.000000 -14.000000 0.000000
vt 2.000000 14.000000 0.000000
vt 28.000000 2.000000 0.000000
vt -0.000000 2.000000 0.000000
vt 28.000000 -2.000000 0.000000
vt 0.000000 -2.000000 0.000000
vt 2.000000 2.000000 0.000000
vt -0.000000 2.000000 0.000000
vt 2.000000 -2.000000 0.000000
vt 0.000000 -2.000000 0.000000
vt 28.000000 2.000000 0.000000
vt 0.000000 2.000000 0.000000
vt 28.000000 -2.000000 0.000000
vt 0.000000 -2.000000 0.000000
vt 4.000000 2.000000 0.000000
vt 0.000000 2.000000 0.000000
vt 4.000000 -2.000000 0.000000
vt 0.000000 -2.000000 0.000000
vt -2.000000 14.000000 0.000000
vt -2.000000 -14.000000 0.000000
vt -0.000000 14.000000 0.000000
vt 2.000000 -14.000000 0.000000
vt 2.000000 14.000000 0.000000
vt -0.000000 -2.500000 0.000000
vt 0.319693 -2.479475 0.000000
vt -0.319693 -2.479475 0.000000
vt -0.634136 -2.418237 0.000000
vt 0.634136 -2.418237 0.000000
vt -0.938168 -2.317292 0.000000
vt 0.938168 -2.317292 0.000000
vt -1.226794 -2.178297 0.000000
vt 1.226794 -2.178297 0.000000
vt -1.495276 -2.003534 0.000000
vt 1.495276 -2.003534 0.000000
vt -1.739206 -1.795873 0.000000
vt 1.739206 -1.795873 0.000000
vt -1.954579 -1.558725 0.000000
vt 1.954579 -1.558725 0.000000
vt -2.137857 -1.295981 0.000000
vt 2.137857 -1.295981 0.000000
vt -2.286032 -1.011958 0.000000
vt 2.286032 -1.011958 0.000000
vt -2.396670 -0.711319 0.000000
vt 2.396670 -0.711319 0.000000
vt -2.467954 -0.399000 0.000000
vt 2.467954 -0.399000 0.000000
vt -2.498716 -0.080129 0.000000
vt 2.498716 -0.080129 0.000000
vt -2.488448 0.240058 0.000000
vt 2.488448 0.240058 0.000000
vt -2.437320 0.556302 0.000000
vt 2.437320 0.556302 0.000000
vt -2.346171 0.863413 0.000000
vt 2.346171 0.863413 0.000000
vt -2.216498 1.156346 0.000000
vt 2.216498 1.156346 0.000000
vt -2.050431 1.430292 0.000000
vt 2.050431 1.430292 0.000000
vt -1.850695 1.680752 0.000000
vt 1.850695 1.680752 0.000000
vt -1.620571 1.903615 0.000000
vt 1.620571 1.903615 0.000000
vt -1.363837 2.095220 0.000000
vt 1.363837 2.095220 0.000000
vt -1.084709 2.252422 0.000000
vt 1.084709 2.252422 0.000000
vt -0.787771 2.372639 0.000000
vt 0.787771 2.372639 0.000000
vt -0.477897 2.453898 0.000000
vt 0.477897 2.453898 0.000000
vt -0.160176 2.494863 0.000000
vt 0.160176 2.494863 0.000000
vt 2.000000 -3.926991 0.000000
vt 2.000000 -3.606420 0.000000
vt -2.000000 -3.926991 0.000000
vt -2.000000 -3.606420 0.000000
vt 2.000000 -3.285849 0.000000
vt -2.000000 -3.285849 0.000000
vt 2.000000 -2.965279 0.000000
vt -2.000000 -2.965279 0.000000
vt 2.000000 -2.644708 0.000000
vt -2.000000 -2.644708 0.000000
vt 2.000000 -2.324137 0.000000
vt -2.000000 -2.324137 0.000000
vt 2.000000 -2.003567 0.000000
vt -2.000000 -2.003567 0.000000
vt 2.000000 -1.682996 0.000000
vt -2.000000 -1.682996 0.000000
vt 2.000000 -1.362425 0.000000
vt -2.000000 -1.362425 0.000000
vt 2.000000 -1.041855 0.000000
vt -2.000000 -1.041855 0.000000
vt 2.000000 -0.721284 0.000000
vt -2.000000 -0.721284 0.000000
vt 2.000000 -0.400713 0.000000
vt -2.000000 -0.400713 0.000000
vt 2.000000 -0.080143 0.000000
vt -2.000000 -0.080143 0.000000
vt 2.000000 0.240428 0.000000
vt -2.000000 0.240428 0.000000
vt 2.000000 0.560999 0.000000
vt -2.000000 0.560999 0.000000
vt 2.000000 0.881569 0.000000
vt -2.000000 0.881569 0.000000
vt 2.000000 1.202140 0.000000
vt -2.000000 1.202140 0.000000
vt 2.000000 1.522711 0.000000
vt -2.000000 1.522711 0.000000
vt 2.000000 1.843281 0.000000
vt -2.000000 1.843281 0.000000
vt 2.000000 2.163852 0.000000
vt -2.000000 2.163852 0.000000
vt 2.000000 2.484423 0.000000
vt -2.000000 2.484423 0.000000
vt 2.000000 2.804993 0.000000
vt -2.000000 2.804993 0.000000
vt 2.000000 3.125564 0.000000
vt -2.000000 3.125564 0.000000
vt 2.000000 3.446135 0.000000
vt -2.000000 3.446135 0.000000
vt 2.000000 3.766705 0.000000
vt -2.000000 3.766705 0.000000
vt 2.000000 4.087276 0.000000
vt -2.000000 4.087276 0.000000
vt 2.000000 4.407847 0.000000
vt -2.000000 4.407847 0.000000
vt 2.000000 4.728418 0.000000
vt -2.000000 4.728418 0.000000
vt 2.000000 5.048988 0.000000
vt -2.000000 5.048988 0.000000
vt 2.000000 5.369559 0.000000
vt -2.000000 5.369559 0.000000
vt 2.000000 5.690130 0.000000
vt -2.000000 5.690130 0.000000
vt 2.000000 6.010700 0.000000
vt -2.000000 6.010700 0.000000
vt 2.000000 6.331271 0.000000
vt -2.000000 6.331271 0.000000
vt 2.000000 6.651842 0.000000
vt -2.000000 6.651842 0.000000
vt 2.000000 6.972412 0.000000
vt -2.000000 6.972412 0.000000
vt 2.000000 7.292983 0.000000
vt -2.000000 7.292983 0.000000
vt 2.000000 7.613554 0.000000
vt -2.000000 7.613554 0.000000
vt 2.000000 7.934124 0.000000
vt -2.000000 7.934124 0.000000
vt -2.000000 -7.773839 0.000000
vt 2.000000 -7.773839 0.000000
vt 2.000000 -7.453268 0.000000
vt -2.000000 -7.453268 0.000000
vt 2.000000 -7.132698 0.000000
vt -2.000000 -7.132698 0.000000
vt 2.000000 -6.812127 0.000000
vt -2.000000 -6.812127 0.000000
vt 2.000000 -6.491556 0.000000
vt -2.000000 -6.491556 0.000000
vt 2.000000 -6.170986 0.000000
vt -2.000000 -6.170986 0.000000
vt 2.000000 -5.850415 0.000000
vt -2.000000 -5.850415 0.000000
vt 2.000000 -5.529844 0.000000
vt -2.000000 -5.529844 0.000000
vt 2.000000 -5.209274 0.000000
vt -2.000000 -5.209274 0.000000
vt 2.000000 -4.888703 0.000000
vt -2.000000 -4.888703 0.000000
vt 2.000000 -4.568132 0.000000
vt -2.000000 -4.568132 0.000000
vt 2.000000 -4.247561 0.000000
vt -2.000000 -4.247561 0.000000
vt 0.000000 -2.500000 0.000000
vt 0.319693 -2.479475 0.000000
vt -0.319693 -2.479475 0.000000
vt -0.634136 -2.418237 0.000000
vt 0.634136 -2.418237 0.000000
vt -0.938168 -2.317292 0.000000
vt 0.938168 -2.317292 0.000000
vt -1.226794 -2.178297 0.000000
vt 1.226794 -2.178297 0.000000
vt -1.495276 -2.003534 0.000000
vt 1.495276 -2.003534 0.000000
vt -1.739206 -1.795873 0.000000
vt 1.739206 -1.795873 0.000000
vt -1.954579 -1.558725 0.000000
vt 1.954579 -1.558725 0.000000
vt -2.137857 -1.295981 0.000000
vt 2.137857 -1.295981 0.000000
vt -2.286032 -1.011958 0.000000
vt 2.286032 -1.011958 0.000000
vt -2.396670 -0.711319 0.000000
vt 2.396670 -0.711319 0.000000
vt -2.467954 -0.399000 0.000000
vt 2.467954 -0.399000 0.000000
vt -2.498716 -0.080129 0.000000
vt 2.498716 -0.080129 0.000000
vt -2.488448 0.240058 0.000000
vt 2.488448 0.240058 0.000000
vt -2.437320 0.556302 0.000000
vt 2.437320 0.556302 0.000000
vt -2.346171 0.863413 0.000000
vt 2.346171 0.863413 0.000000
vt -2.216498 1.156346 0.000000
vt 2.216498 1.156346 0.000000
vt -2.050431 1.430292 0.000000
vt 2.050431 1.430292 0.000000
vt -1.850695 1.680752 0.000000
vt 1.850695 1.680752 0.000000
vt -1.620571 1.903615 0.000000
vt 1.620571 1.903615 0.000000
vt -1.363837 2.095220 0.000000
vt 1.363837 2.095220 0.000000
vt -1.084709 2.252422 0.000000
vt 1.084709 2.252422 0.000000
vt -0.787771 2.372639 0.000000
vt 0.787771 2.372639 0.000000
vt -0.477897 2.453898 0.000000
vt 0.477897 2.453898 0.000000
vt -0.160176 2.494863 0.000000
vt 0.160176 2.494863 0.000000
vn 0.000000 0.100000 0.000000
vn 0.000000 0.100000 0.000000
vn 0.000000 0.100000 0.000000
vn 0.000000 0.100000 0.000000
vn 0.000000 0.000000 -0.100000
vn 0.000000 0.000000 -0.100000
vn 0.000000 0.000000 -0.100000
vn 0.000000 0.000000 -0.100000
vn 0.000000 0.000000 -0.100000
vn -0.100000 0.000000 0.000000
vn -0.100000 0.000000 0.000000
vn -0.100000 0.000000 0.000000
vn -0.100000 0.000000 0.000000
vn 0.000000 0.100000 0.000000
vn 0.000000 0.100000 0.000000
vn 0.100000 0.000000 0.000000
vn 0.100000 0.000000 0.000000
vn 0.100000 0.000000 0.000000
vn 0.100000 0.000000 0.000000
vn 0.000000 -0.100000 0.000000
vn 0.000000 -0.100000 0.000000
vn 0.000000 -0.100000 0.000000
vn 0.000000 -0.100000 0.000000
vn 0.000000 0.000000 0.100000
vn 0.000000 0.000000 0.100000
vn 0.000000 0.000000 0.100000
vn 0.000000 0.000000 0.100000
vn 0.000000 0.000000 0.100000
vn 0.000000 0.000000 -0.100000
vn 0.000000 0.000000 -0.100000
vn 0.000000 0.000000 -0.100000
vn 0.000000 0.000000 -0.100000
vn 0.000000 0.000000 -0.100000
vn 0.000000 0.000000 -0.100000
vn 0.000000 0.000000 -0.100000
vn 0.000000 0.000000 -0.100000
vn 0.000000 0.000000 -0.100000
vn 0.000000 0.000000 -0.100000
vn 0.000000 0.000000 -0.100000
vn 0.000000 0.000000 -0.100000
vn 0.000000 0.000000 -0.100000
vn 0.000000 0.000000 -0.100000
vn 0.000000 0.000000 -0.100000
vn 0.000000 0.000000 -0.100000
vn 0.000000 0.000000 -0.100000
vn 0.000000 0.000000 -0.100000
vn 0.000000 0.000000 -0.100000
vn 0.000000 0.000000 -0.100000
vn 0.000000 0.000000 -0.100000
vn 0.000000 0.000000 -0.100000
vn 0.000000 0.000000 -0.100000
vn 0.000000 0.000000 -0.100000
vn 0.000000 0.000000 -0.100000
vn 0.000000 0.000000 -0.100000
vn 0.000000 0.000000 -0.100000
vn 0.000000 0.000000 -0.100000
vn 0.000000 0.000000 -0.100000
vn 0.000000 0.000000 -0.100000
vn 0.000000 0.000000 -0.100000
vn 0.000000 0.000000 -0.100000
vn 0.000000 0.000000 -0.100000
vn 0.000000 0.000000 -0.100000
vn 0.000000 0.000000 -0.100000
vn 0.000000 0.000000 -0.100000
vn 0.000000 0.000000 -0.100000
vn 0.000000 0.000000 -0.100000
vn 0.000000 0.000000 -0.100000
vn 0.000000 0.000000 -0.100000
vn 0.000000 0.000000 -0.100000
vn 0.000000 0.000000 -0.100000
vn 0.000000 0.000000 -0.100000
vn 0.000000 0.000000 -0.100000
vn 0.000000 0.000000 -0.100000
vn 0.000000 0.000000 -0.100000
vn 0.000000 0.000000 -0.100000
vn 0.000000 0.000000 -0.100000
vn 0.000000 -0.100000 0.000000
vn 0.012788 -0.099179 0.000000
vn 0.000000 -0.100000 0.000000
vn 0.012788 -0.099179 0.000000
vn 0.025365 -0.096729 0.000000
vn 0.025365 -0.096729 0.000000
vn 0.037527 -0.092692 0.000000
vn 0.037527 -0.092692 0.000000
vn 0.049072 -0.087132 0.000000
vn 0.049072 -0.087132 0.000000
vn 0.059811 -0.080141 0.000000
vn 0.059811 -0.080141 0.000000
vn 0.069568 -0.071835 0.000000
vn 0.069568 -0.071835 0.000000
vn 0.078183 -0.062349 0.000000
vn 0.078183 -0.062349 0.000000
vn 0.085514 -0.051839 0.000000
vn 0.085514 -0.051839 0.000000
vn 0.091441 -0.040478 0.000000
vn 0.091441 -0.040478 0.000000
vn 0.095867 -0.028453 0.000000
vn 0.095867 -0.028453 0.000000
vn 0.098718 -0.015960 0.000000
vn 0.098718 -0.015960 0.000000
vn 0.099949 -0.003205 0.000000
vn 0.099949 -0.003205 0.000000
vn 0.099538 0.009602 0.000000
vn 0.099538 0.009602 0.000000
vn 0.097493 0.022252 0.000000
vn 0.097493 0.022252 0.000000
vn 0.093847 0.034537 0.000000
vn 0.093847 0.034537 0.000000
vn 0.088660 0.046254 0.000000
vn 0.088660 0.046254 0.000000
vn 0.082017 0.057212 0.000000
vn 0.082017 0.057212 0.000000
vn 0.074028 0.067230 0.000000
vn 0.074028 0.067230 0.000000
vn 0.064823 0.076145 0.000000
vn 0.064823 0.076145 0.000000
vn 0.054553 0.083809 0.000000
vn 0.054553 0.083809 0.000000
vn 0.043388 0.090097 0.000000
vn 0.043388 0.090097 0.000000
vn 0.031511 0.094906 0.000000
vn 0.031511 0.094906 0.000000
vn 0.019116 0.098156 0.000000
vn 0.019116 0.098156 0.000000
vn 0.006407 0.099795 0.000000
vn 0.006407 0.099795 0.000000
vn -0.006407 0.099795 -0.000000
vn -0.006407 0.099795 -0.000000
vn -0.019116 0.098156 -0.000000
vn -0.019116 0.098156 -0.000000
vn -0.031511 0.094906 -0.000000
vn -0.031511 0.094906 -0.000000
vn -0.043388 0.090097 -0.000000
vn -0.043388 0.090097 -0.000000
vn -0.054553 0.083809 -0.000000
vn -0.054553 0.083809 -0.000000
vn -0.064823 0.076145 -0.000000
vn -0.064823 0.076145 -0.000000
vn -0.074028 0.067230 -0.000000
vn -0.074028 0.067230 -0.000000
vn -0.082017 0.057212 -0.000000
vn -0.082017 0.057212 -0.000000
vn -0.088660 0.046254 -0.000000
vn -0.088660 0.046254 -0.000000
vn -0.093847 0.034537 -0.000000
vn -0.093847 0.034537 -0.000000
vn -0.097493 0.022252 -0.000000
vn -0.097493 0.022252 -0.000000
vn -0.099538 0.009602 -0.000000
vn -0.099538 0.009602 -0.000000
vn -0.099949 -0.003205 0.000000
vn -0.099949 -0.003205 0.000000
vn -0.098718 -0.015960 0.000000
vn -0.098718 -0.015960 0.000000
vn -0.095867 -0.028453 0.000000
vn -0.095867 -0.028453 0.000000
vn -0.091441 -0.040478 0.000000
vn -0.091441 -0.040478 0.000000
vn -0.085514 -0.051839 0.000000
vn -0.085514 -0.051839 0.000000
vn -0.078183 -0.062349 0.000000
vn -0.078183 -0.062349 0.000000
vn -0.069568 -0.071835 0.000000
vn -0.069568 -0.071835 0.000000
vn -0.059811 -0.080141 0.000000
vn -0.059811 -0.080141 0.000000
vn -0.049072 -0.087132 0.000000
vn -0.049072 -0.087132 0.000000
vn -0.037527 -0.092692 0.000000
vn -0.037527 -0.092692 0.000000
vn -0.025365 -0.096729 0.000000
vn -0.025365 -0.096729 0.000000
vn -0.012788 -0.099179 0.000000
vn -0.012788 -0.099179 0.000000
vn 0.000000 0.000000 0.100000
vn 0.000000 0.000000 0.100000
vn 0.000000 0.000000 0.100000
vn 0.000000 0.000000 0.100000
vn 0.000000 0.000000 0.100000
vn 0.000000 0.000000 0.100000
vn 0.000000 0.000000 0.100000
vn 0.000000 0.000000 0.100000
vn 0.000000 0.000000 0.100000
vn 0.000000 0.000000 0.100000
vn 0.000000 0.000000 0.100000
vn 0.000000 0.000000 0.100000
vn 0.000000 0.000000 0.100000
vn 0.000000 0.000000 0.100000
vn 0.000000 0.000000 0.100000
vn 0.000000 0.000000 0.100000
vn 0.000000 0.000000 0.100000
vn 0.000000 0.000000 0.100000
vn 0.000000 0.000000 0.100000
vn 0.000000 0.000000 0.100000
vn 0.000000 0.000000 0.100000
vn 0.000000 0.000000 0.100000
vn 0.000000 0.000000 0.100000
vn 0.000000 0.000000 0.100000
vn 0.000000 0.000000 0.100000
vn 0.000000 0.000000 0.100000
vn 0.000000 0.000000 0.100000
vn 0.000000 0.000000 0.100000
vn 0.000000 0.000000 0.100000
vn 0.000000 0.000000 0.100000
vn 0.000000 0.000000 0.100000
vn 0.000000 0.000000 0.100000
vn 0.000000 0.000000 0.100000
vn 0.000000 0.000000 0.100000
vn 0.000000 0.000000 0.100000
vn 0.000000 0.000000 0.100000
vn 0.000000 0.000000 0.100000
vn 0.000000 0.000000 0.100000
vn 0.000000 0.000000 0.100000
vn 0.000000 0.000000 0.100000
vn 0.000000 0.000000 0.100000
vn 0.000000 0.000000 0.100000
vn 0.000000 0.000000 0.100000
vn 0.000000 0.000000 0.100000
vn 0.000000 0.000000 0.100000
vn 0.000000 0.000000 0.100000
vn 0.000000 0.000000 0.100000
vn 0.000000 0.000000 0.100000
usemtl Steel_-_Satin
f 2/1/1 3/2/2 1/3/3
f 1/3/3 3/2/2 4/4/4
f 7/5/5 5/6/6 2/7/7
f 2/7/7 5/6/6 6/8/8
f 2/7/7 6/8/8 3/9/9
f 8/10/10 4/11/11 6/12/12
f 6/12/12 4/11/11 3/13/13
f 1/14/3 9/15/14 2/16/1
f 2/16/1 9/15/14 7/17/15
f 9/18/16 10/19/17 7/20/18
f 7/20/18 10/19/17 5/21/19
f 10/22/20 8/23/21 5/24/22
f 5/24/22 8/23/21 6/25/23
f 4/26/24 8/27/25 1/28/26
f 1/28/26 8/27/25 10/29/27
f 1/28/26 10/29/27 9/30/28
f 2/31/7 11/32/29 58/33/30
f 58/33/30 11/32/29 57/34/31
f 57/34/31 11/32/29 12/35/32
f 57/34/31 12/35/32 56/36/33
f 56/36/33 12/35/32 13/37/34
f 56/36/33 13/37/34 55/38/35
f 55/38/35 13/37/34 14/39/36
f 55/38/35 14/39/36 54/40/37
f 54/40/37 14/39/36 15/41/38
f 54/40/37 15/41/38 53/42/39
f 53/42/39 15/41/38 16/43/40
f 53/42/39 16/43/40 52/44/41
f 52/44/41 16/43/40 17/45/42
f 52/44/41 17/45/42 51/46/43
f 51/46/43 17/45/42 18/47/44
f 51/46/43 18/47/44 50/48/45
f 50/48/45 18/47/44 19/49/46
f 50/48/45 19/49/46 49/50/47
f 49/50/47 19/49/46 20/51/48
f 49/50/47 20/51/48 48/52/49
f 48/52/49 20/51/48 21/53/50
f 48/52/49 21/53/50 47/54/51
f 47/54/51 21/53/50 22/55/52
f 47/54/51 22/55/52 46/56/53
f 46/56/53 22/55/52 23/57/54
f 46/56/53 23/57/54 45/58/55
f 45/58/55 23/57/54 24/59/56
f 45/58/55 24/59/56 44/60/57
f 44/60/57 24/59/56 25/61/58
f 44/60/57 25/61/58 43/62/59
f 43/62/59 25/61/58 26/63/60
f 43/62/59 26/63/60 42/64/61
f 42/64/61 26/63/60 27/65/62
f 42/64/61 27/65/62 41/66/63
f 41/66/63 27/65/62 28/67/64
f 41/66/63 28/67/64 40/68/65
f 40/68/65 28/67/64 29/69/66
f 40/68/65 29/69/66 39/70/67
f 39/70/67 29/69/66 30/71/68
f 39/70/67 30/71/68 38/72/69
f 38/72/69 30/71/68 31/73/70
f 38/72/69 31/73/70 37/74/71
f 37/74/71 31/73/70 32/75/72
f 37/74/71 32/75/72 36/76/73
f 36/76/73 32/75/72 33/77/74
f 36/76/73 33/77/74 35/78/75
f 35/78/75 33/77/74 34/79/76
f 2/80/77 58/81/78 1/82/79
f 1/82/79 58/81/78 106/83/80
f 106/83/80 58/81/78 57/84/81
f 106/83/80 57/84/81 105/85/82
f 105/85/82 57/84/81 56/86/83
f 105/85/82 56/86/83 104/87/84
f 104/87/84 56/86/83 55/88/85
f 104/87/84 55/88/85 103/89/86
f 103/89/86 55/88/85 54/90/87
f 103/89/86 54/90/87 102/91/88
f 102/91/88 54/90/87 53/92/89
f 102/91/88 53/92/89 101/93/90
f 101/93/90 53/92/89 52/94/91
f 101/93/90 52/94/91 100/95/92
f 100/95/92 52/94/91 51/96/93
f 100/95/92 51/96/93 99/97/94
f 99/97/94 51/96/93 50/98/95
f 99/97/94 50/98/95 98/99/96
f 98/99/96 50/98/95 49/100/97
f 98/99/96 49/100/97 97/101/98
f 97/101/98 49/100/97 48/102/99
f 97/101/98 48/102/99 96/103/100
f 96/103/100 48/102/99 47/104/101
f 96/103/100 47/104/101 95/105/102
f 95/105/102 47/104/101 46/106/103
f 95/105/102 46/106/103 94/107/104
f 94/107/104 46/106/103 45/108/105
f 94/107/104 45/108/105 93/109/106
f 93/109/106 45/108/105 44/110/107
f 93/109/106 44/110/107 92/111/108
f 92/111/108 44/110/107 43/112/109
f 92/111/108 43/112/109 91/113/110
f 91/113/110 43/112/109 42/114/111
f 91/113/110 42/114/111 90/115/112
f 90/115/112 42/114/111 41/116/113
f 90/115/112 41/116/113 89/117/114
f 89/117/114 41/116/113 40/118/115
f 89/117/114 40/118/115 88/119/116
f 88/119/116 40/118/115 39/120/117
f 88/119/116 39/120/117 87/121/118
f 87/121/118 39/120/117 38/122/119
f 87/121/118 38/122/119 86/123/120
f 86/123/120 38/122/119 37/124/121
f 86/123/120 37/124/121 85/125/122
f 85/125/122 37/124/121 36/126/123
f 85/125/122 36/126/123 84/127/124
f 84/127/124 36/126/123 35/128/125
f 84/127/124 35/128/125 83/129/126
f 83/129/126 35/128/125 34/130/127
f 83/129/126 34/130/127 82/131/128
f 82/131/128 34/130/127 33/132/129
f 82/131/128 33/132/129 81/133/130
f 81/133/130 33/132/129 32/134/131
f 81/133/130 32/134/131 80/135/132
f 80/135/132 32/134/131 31/136/133
f 80/135/132 31/136/133 79/137/134
f 79/137/134 31/136/133 30/138/135
f 79/137/134 30/138/135 78/139/136
f 78/139/136 30/138/135 29/140/137
f 78/139/136 29/140/137 77/141/138
f 77/141/138 29/140/137 28/142/139
f 77/141/138 28/142/139 76/143/140
f 76/143/140 28/142/139 27/144/141
f 76/143/140 27/144/141 75/145/142
f 75/145/142 27/144/141 26/146/143
f 75/145/142 26/146/143 74/147/144
f 74/147/144 26/146/143 25/148/145
f 74/147/144 25/148/145 73/149/146
f 73/149/146 25/148/145 24/150/147
f 73/149/146 24/150/147 72/151/148
f 72/151/148 24/150/147 23/152/149
f 72/151/148 23/152/149 71/153/150
f 71/153/150 23/152/149 22/154/151
f 71/153/150 22/154/151 70/155/152
f 70/156/152 22/157/151 21/158/153
f 70/156/152 21/158/153 69/159/154
f 69/159/154 21/158/153 20/160/155
f 69/159/154 20/160/155 68/161/156
f 68/161/156 20/160/155 19/162/157
f 68/161/156 19/162/157 67/163/158
f 67/163/158 19/162/157 18/164/159
f 67/163/158 18/164/159 66/165/160
f 66/165/160 18/164/159 17/166/161
f 66/165/160 17/166/161 65/167/162
f 65/167/162 17/166/161 16/168/163
f 65/167/162 16/168/163 64/169/164
f 64/169/164 16/168/163 15/170/165
f 64/169/164 15/170/165 63/171/166
f 63/171/166 15/170/165 14/172/167
f 63/171/166 14/172/167 62/173/168
f 62/173/168 14/172/167 13/174/169
f 62/173/168 13/174/169 61/175/170
f 61/175/170 13/174/169 12/176/171
f 61/175/170 12/176/171 60/177/172
f 60/177/172 12/176/171 11/178/173
f 60/177/172 11/178/173 59/179/174
f 59/179/174 11/178/173 2/80/77
f 59/179/174 2/80/77 1/82/79
f 1/180/26 106/181/175 59/182/176
f 59/182/176 106/181/175 60/183/177
f 60/183/177 106/181/175 105/184/178
f 60/183/177 105/184/178 61/185/179
f 61/185/179 105/184/178 104/186/180
f 61/185/179 104/186/180 62/187/181
f 62/187/181 104/186/180 103/188/182
f 62/187/181 103/188/182 63/189/183
f 63/189/183 103/188/182 102/190/184
f 63/189/183 102/190/184 64/191/185
f 64/191/185 102/190/184 101/192/186
f 64/191/185 101/192/186 65/193/187
f 65/193/187 101/192/186 100/194/188
f 65/193/187 100/194/188 66/195/189
f 66/195/189 100/194/188 99/196/190
f 66/195/189 99/196/190 67/197/191
f 67/197/191 99/196/190 98/198/192
f 67/197/191 98/198/192 68/199/193
f 68/199/193 98/198/192 97/200/194
f 68/199/193 97/200/194 69/201/195
f 69/201/195 97/200/194 96/202/196
f 69/201/195 96/202/196 70/203/197
f 70/203/197 96/202/196 95/204/198
f 70/203/197 95/204/198 71/205/199
f 71/205/199 95/204/198 94/206/200
f 71/205/199 94/206/200 72/207/201
f 72/207/201 94/206/200 93/208/202
f 72/207/201 93/208/202 73/209/203
f 73/209/203 93/208/202 92/210/204
f 73/209/203 92/210/204 74/211/205
f 74/211/205 92/210/204 91/212/206
f 74/211/205 91/212/206 75/213/207
f 75/213/207 91/212/206 90/214/208
f 75/213/207 90/214/208 76/215/209
f 76/215/209 90/214/208 89/216/210
f 76/215/209 89/216/210 77/217/211
f 77/217/211 89/216/210 88/218/212
f 77/217/211 88/218/212 78/219/213
f 78/219/213 88/218/212 87/220/214
f 78/219/213 87/220/214 79/221/215
f 79/221/215 87/220/214 86/222/216
f 79/221/215 86/222/216 80/223/217
f 80/223/217 86/222/216 85/224/218
f 80/223/217 85/224/218 81/225/219
f 81/225/219 85/224/218 84/226/220
f 81/225/219 84/226/220 82/227/221
f 82/227/221 84/226/220 83/228/222
# 106 vertices
# 228 texture params
# 222 normals
# 208 facets

# 1 groups
